<svg xmlns="http://www.w3.org/2000/svg" viewBox="0 0 100 100" fill="none">
  <!-- Outer Ring with Zodiac/Constellation hints -->
  <circle cx="50" cy="50" r="45" stroke="#D4A574" stroke-width="2" fill="none" opacity="0.8" />
  <circle cx="50" cy="50" r="38" stroke="#D4A574" stroke-width="1" fill="none" opacity="0.6" />
  
  <!-- Twelve Zodiac Circles on the rim -->
  <g fill="#FFF5E6" stroke="#D4A574" stroke-width="1.5">
    <circle cx="50" cy="5" r="4" />
    <circle cx="72.5" cy="11" r="4" />
    <circle cx="89" cy="27.5" r="4" />
    <circle cx="95" cy="50" r="4" />
    <circle cx="89" cy="72.5" r="4" />
    <circle cx="72.5" cy="89" r="4" />
    <circle cx="50" cy="95" r="4" />
    <circle cx="27.5" cy="89" r="4" />
    <circle cx="11" cy="72.5" r="4" />
    <circle cx="5" cy="50" r="4" />
    <circle cx="11" cy="27.5" r="4" />
    <circle cx="27.5" cy="11" r="4" />
  </g>

  <!-- Central Star/Geometry -->
  <path d="M50 15 L58 42 L85 50 L58 58 L50 85 L42 58 L15 50 L42 42 Z" fill="#D4A574" opacity="0.9" />
  <path d="M50 25 L55 45 L75 50 L55 55 L50 75 L45 55 L25 50 L45 45 Z" fill="#FFD700" opacity="0.8" />
  
  <!-- Inner Map/Symbol (Abstract) -->
  <path d="M45 45 Q50 40 55 45 T65 55" stroke="#5C1A1A" stroke-width="2" fill="none" />
</svg>
